<svg id="Capa_1" data-name="Capa 1" xmlns="http://www.w3.org/2000/svg" viewBox="0 0 283.46 283.46"><path d="M92.23,213.82c33-39,42.93-74.6,45.9-92.41l.34-2-1.84-1a11.59,11.59,0,1,1,10.9-.21l-1.72,1,.32,2c2.93,17.85,12.79,53.49,45.94,92.68L188.42,217c-4.2-5-8.25-10.14-12-15.39l-.84-1.18H108.78l-.85,1.18c-3.79,5.24-7.84,10.41-12.05,15.39Zm31.48-37.28c-2.64,4.9-5.56,9.84-8.69,14.68l-2.82,4.37h59.9l-2.82-4.37c-3.13-4.85-6.05-9.79-8.7-14.67l-.8-1.49H124.52Zm15.71-38.29a181.46,181.46,0,0,1-10.49,27.94l-1.89,4h30.22l-1.89-4a182.5,182.5,0,0,1-10.49-27.94l-2.73-9.74Z"/><path d="M197,164.31a2.37,2.37,0,0,1-1.7-.71,2.4,2.4,0,0,1,0-3.41,74.57,74.57,0,0,0-2.91-108.25,2.46,2.46,0,0,1-.8-1.67A2.42,2.42,0,0,1,194,47.73a2.37,2.37,0,0,1,1.6.61,79.39,79.39,0,0,1,3.1,115.26A2.39,2.39,0,0,1,197,164.31Z"/><path d="M181.53,148.86a2.42,2.42,0,0,1-1.7-4.13,52.66,52.66,0,0,0-1-75.48,2.42,2.42,0,1,1,3.33-3.5,57.47,57.47,0,0,1,1.06,82.4A2.37,2.37,0,0,1,181.53,148.86Z"/><path d="M166.23,133.55a2.37,2.37,0,0,1-1.71-.71,2.41,2.41,0,0,1,0-3.41,31,31,0,0,0,.83-43.07,2.36,2.36,0,0,1-.64-1.73,2.42,2.42,0,0,1,4.19-1.55,35.88,35.88,0,0,1-1,49.77A2.44,2.44,0,0,1,166.23,133.55Z"/><path d="M86.55,164.31a2.41,2.41,0,0,1-1.71-.71A79.4,79.4,0,0,1,87.93,48.34a2.46,2.46,0,0,1,1.61-.61,2.41,2.41,0,0,1,1.62,4.21,74.56,74.56,0,0,0-2.9,108.25,2.42,2.42,0,0,1-1.71,4.12Z"/><path d="M102,148.86a2.39,2.39,0,0,1-1.71-.71,57.48,57.48,0,0,1,1.07-82.4,2.42,2.42,0,1,1,3.33,3.5,52.64,52.64,0,0,0-1,75.48,2.42,2.42,0,0,1-1.71,4.13Z"/><path d="M117.31,133.55a2.37,2.37,0,0,1-1.71-.71,35.85,35.85,0,0,1-1-49.76,2.42,2.42,0,0,1,3.41-.13,2.42,2.42,0,0,1,.13,3.41,31,31,0,0,0,.83,43.07,2.42,2.42,0,0,1-1.7,4.12Z"/></svg>